<svg width="1432" height="396" viewBox="0 0 1432 396" fill="none" xmlns="http://www.w3.org/2000/svg">
<g clip-path="url(#clip0_2_36)">
<ellipse cx="280.997" cy="345.032" rx="419.893" ry="407.349" fill="#8BC43E"/>
<ellipse cx="279.647" cy="340.257" rx="332.591" ry="325.433" fill="#6CA840"/>
<ellipse cx="279.648" cy="340.254" rx="242.243" ry="235.398" fill="#4D903F"/>
<ellipse cx="280.998" cy="316.843" rx="143.256" ry="137.686" fill="#066638"/>
<ellipse cx="304.99" cy="345.036" rx="119.264" ry="112.849" fill="#077D45"/>
<path d="M177.901 289.145H99.8812V264.278H177.901V289.145ZM188.911 233.335H90.0101V344.766H65.3322V221.091C65.3322 219.383 65.6485 217.769 66.2813 216.251C66.9141 214.732 67.7683 213.403 68.844 212.264C69.983 211.125 71.3118 210.239 72.8304 209.607C74.3491 208.974 75.9943 208.658 77.766 208.658H188.911V233.335ZM309.085 289.145H231.16V264.278H309.085V289.145ZM320.19 344.766H231.16C227.743 344.766 224.01 344.164 219.96 342.962C215.91 341.76 212.145 339.798 208.665 337.078C205.248 334.293 202.369 330.718 200.028 326.352C197.75 321.923 196.611 316.513 196.611 310.122V221.091C196.611 219.383 196.927 217.769 197.56 216.251C198.193 214.732 199.047 213.403 200.123 212.264C201.262 211.125 202.591 210.239 204.109 209.607C205.628 208.974 207.273 208.658 209.045 208.658H320.19V233.335H221.289V310.122C221.289 313.349 222.143 315.817 223.852 317.525C225.56 319.233 228.059 320.088 231.35 320.088H320.19V344.766Z" fill="white"/>
</g>
<path d="M385.351 264V67.4449H444.541V86.7654H408.357V148.859H442.308V168.403H408.357V264H385.351ZM529.658 265.452C519.533 265.452 512.237 261.543 507.769 253.726C503.302 245.834 501.031 234.926 500.957 221.004V204.698C500.957 197.328 502.223 191.222 504.754 186.383C507.285 181.469 510.859 177.374 515.475 174.098C520.091 170.822 525.526 167.882 531.78 165.276C538.034 162.595 544.884 159.766 552.329 156.788V143.833C552.329 136.686 552.106 130.916 551.659 126.523C551.213 122.056 550.059 118.78 548.197 116.695C546.41 114.611 543.507 113.568 539.486 113.568C535.54 113.568 532.562 114.611 530.552 116.695C528.616 118.78 527.35 122.056 526.755 126.523C526.159 130.99 525.861 136.798 525.861 143.945V149.752H503.079V144.95C503.079 137.803 503.526 131.176 504.419 125.071C505.312 118.892 507.025 113.531 509.556 108.989C512.088 104.448 515.773 100.911 520.612 98.38C525.526 95.7741 531.967 94.4712 539.933 94.4712C547.527 94.4712 553.632 95.6997 558.248 98.1566C562.939 100.539 566.513 104.076 568.97 108.766C571.501 113.457 573.213 119.264 574.107 126.188C575 133.038 575.447 140.967 575.447 149.976V264H552.441V249.482C551.771 251.715 550.468 254.098 548.532 256.629C546.596 259.086 544.065 261.171 540.938 262.883C537.811 264.596 534.051 265.452 529.658 265.452ZM536.136 246.913C540.156 246.913 543.618 245.647 546.522 243.116C549.426 240.51 551.361 237.942 552.329 235.41V171.641C546.596 174.173 541.869 176.481 538.146 178.566C534.498 180.576 531.631 182.698 529.547 184.931C527.537 187.165 526.122 189.845 525.303 192.972C524.484 196.099 524.075 200.045 524.075 204.81V220.333C524.075 229.789 524.894 236.601 526.531 240.771C528.169 244.866 531.371 246.913 536.136 246.913ZM644.371 264V96.4814H667.377V115.132C669.312 108.654 672.663 103.592 677.428 99.9435C682.267 96.2953 688.41 94.4712 695.855 94.4712C696.004 94.4712 696.078 95.4763 696.078 97.4866C696.153 99.4223 696.19 101.656 696.19 104.187C696.19 106.719 696.19 108.989 696.19 111C696.19 112.935 696.19 113.903 696.19 113.903C692.616 113.903 689.042 114.35 685.469 115.244C681.895 116.062 678.545 117.514 675.418 119.599C672.29 121.609 669.61 124.364 667.377 127.863V264H644.371ZM754.504 264V96.4814H777.398V113.903C778.887 108.617 781.866 104.038 786.333 100.167C790.874 96.2953 796.607 94.3595 803.531 94.3595C809.041 94.3595 813.843 95.6997 817.938 98.38C822.033 101.06 825.123 105.379 827.207 111.335C829.962 106.272 833.759 102.177 838.598 99.0501C843.438 95.923 849.096 94.3595 855.574 94.3595C864.434 94.3595 871.172 97.5238 875.788 103.852C880.404 110.106 882.712 119.413 882.712 131.772V264H859.817V131.102C859.817 124.773 858.589 120.381 856.132 117.924C853.675 115.392 850.436 114.127 846.416 114.127C840.683 114.127 836.514 115.43 833.908 118.035C831.377 120.567 830.111 125.146 830.111 131.772V264H807.105V130.99C807.105 125.034 805.951 120.753 803.643 118.147C801.335 115.467 798.096 114.127 793.927 114.127C788.492 114.127 784.36 115.876 781.53 119.376C778.776 122.875 777.398 127.603 777.398 133.559V264H754.504ZM987.82 266.01C979.779 266.01 973.301 264.633 968.387 261.878C963.548 259.049 959.863 255.066 957.331 249.928C954.8 244.791 953.087 238.649 952.194 231.501C951.375 224.279 950.965 216.313 950.965 207.602V148.412C950.965 140.52 951.524 133.298 952.641 126.746C953.757 120.12 955.693 114.425 958.448 109.66C961.203 104.82 965.037 101.098 969.951 98.4917C974.865 95.8114 981.119 94.4712 988.713 94.4712C996.382 94.4712 1002.56 95.8114 1007.25 98.4917C1011.94 101.172 1015.48 104.969 1017.86 109.883C1020.32 114.722 1021.96 120.53 1022.78 127.305C1023.59 134.006 1024 141.376 1024 149.417V181.022H973.971V214.415C973.971 224.987 974.679 233.065 976.093 238.649C977.582 244.158 981.566 246.913 988.043 246.913C992.287 246.913 995.302 245.61 997.089 243.004C998.95 240.324 1000.07 236.601 1000.44 231.836C1000.89 226.997 1001.11 221.301 1001.11 214.75V201.236H1023.56V208.384C1023.56 217.095 1023.18 224.987 1022.44 232.06C1021.77 239.133 1020.28 245.201 1017.97 250.263C1015.66 255.326 1012.09 259.235 1007.25 261.99C1002.49 264.67 996.009 266.01 987.82 266.01ZM973.86 165.499H1001.11V144.168C1001.11 137.468 1000.89 131.846 1000.44 127.305C999.993 122.689 998.913 119.227 997.201 116.919C995.488 114.536 992.659 113.345 988.713 113.345C984.32 113.345 981.044 114.685 978.885 117.365C976.801 120.046 975.423 123.768 974.753 128.533C974.157 133.224 973.86 138.696 973.86 144.95V165.499ZM1115.82 265.452C1105.7 265.452 1098.4 261.543 1093.93 253.726C1089.47 245.834 1087.19 234.926 1087.12 221.004V204.698C1087.12 197.328 1088.39 191.222 1090.92 186.383C1093.45 181.469 1097.02 177.374 1101.64 174.098C1106.25 170.822 1111.69 167.882 1117.94 165.276C1124.2 162.595 1131.05 159.766 1138.49 156.788V143.833C1138.49 136.686 1138.27 130.916 1137.82 126.523C1137.38 122.056 1136.22 118.78 1134.36 116.695C1132.57 114.611 1129.67 113.568 1125.65 113.568C1121.7 113.568 1118.73 114.611 1116.72 116.695C1114.78 118.78 1113.51 122.056 1112.92 126.523C1112.32 130.99 1112.02 136.798 1112.02 143.945V149.752H1089.24V144.95C1089.24 137.803 1089.69 131.176 1090.58 125.071C1091.48 118.892 1093.19 113.531 1095.72 108.989C1098.25 104.448 1101.94 100.911 1106.78 98.38C1111.69 95.7741 1118.13 94.4712 1126.1 94.4712C1133.69 94.4712 1139.8 95.6997 1144.41 98.1566C1149.1 100.539 1152.68 104.076 1155.13 108.766C1157.66 113.457 1159.38 119.264 1160.27 126.188C1161.16 133.038 1161.61 140.967 1161.61 149.976V264H1138.6V249.482C1137.93 251.715 1136.63 254.098 1134.7 256.629C1132.76 259.086 1130.23 261.171 1127.1 262.883C1123.97 264.596 1120.21 265.452 1115.82 265.452ZM1122.3 246.913C1126.32 246.913 1129.78 245.647 1132.69 243.116C1135.59 240.51 1137.52 237.942 1138.49 235.41V171.641C1132.76 174.173 1128.03 176.481 1124.31 178.566C1120.66 180.576 1117.79 182.698 1115.71 184.931C1113.7 187.165 1112.29 189.845 1111.47 192.972C1110.65 196.099 1110.24 200.045 1110.24 204.81V220.333C1110.24 229.789 1111.06 236.601 1112.69 240.771C1114.33 244.866 1117.53 246.913 1122.3 246.913ZM1261.69 266.234C1249.78 266.234 1240.73 262.511 1234.55 255.066C1228.37 247.546 1225.28 235.112 1225.28 217.765V205.145H1247.51V217.653C1247.51 227.034 1248.51 234.219 1250.52 239.207C1252.61 244.196 1256 246.69 1260.69 246.69C1265.38 246.69 1268.8 245.163 1270.96 242.111C1273.2 239.058 1274.31 233.586 1274.31 225.694C1274.31 221.748 1273.72 217.839 1272.53 213.968C1271.33 210.022 1269.51 206.15 1267.05 202.353C1264.6 198.482 1261.43 194.722 1257.56 191.074L1245.72 179.794C1238.65 173.019 1233.25 165.834 1229.53 158.24C1225.81 150.571 1223.94 142.456 1223.94 133.894C1223.94 120.344 1227.15 110.404 1233.55 104.076C1239.95 97.6727 1248.77 94.4712 1260.02 94.4712C1267.54 94.4712 1273.87 96.1092 1279 99.3851C1284.14 102.661 1288.01 108.096 1290.62 115.69C1293.22 123.284 1294.53 133.633 1294.53 146.737V154.778H1272.75V143.163C1272.75 133.782 1271.82 126.598 1269.96 121.609C1268.17 116.621 1264.93 114.127 1260.24 114.127C1255.7 114.127 1252.27 115.467 1249.97 118.147C1247.73 120.753 1246.5 125.555 1246.28 132.554C1246.21 136.127 1246.65 139.738 1247.62 143.387C1248.66 147.035 1250.34 150.646 1252.65 154.22C1254.95 157.793 1257.93 161.293 1261.58 164.717L1273.64 175.997C1281.46 183.219 1287.34 190.999 1291.29 199.338C1295.31 207.602 1297.32 216.35 1297.32 225.582C1297.32 238.239 1294.41 248.179 1288.61 255.401C1282.87 262.623 1273.9 266.234 1261.69 266.234ZM1354.4 292.031V274.721H1362.33C1365.61 274.721 1368.44 274.535 1370.82 274.163C1373.28 273.865 1374.77 273.158 1375.29 272.041C1376.18 270.85 1376.52 268.951 1376.29 266.345C1376.14 263.814 1375.85 261.059 1375.4 258.081L1348.04 96.4814H1370.26L1382.32 183.591L1387.24 228.933H1389.25L1393.6 183.591L1404.55 96.4814H1426.66L1398.85 267.239C1397.96 273.269 1396.84 278.109 1395.5 281.757C1394.16 285.405 1392.08 288.011 1389.25 289.575C1386.49 291.212 1382.36 292.031 1376.85 292.031H1354.4Z" fill="white"/>
<path d="M427.437 306.949H451.467V308.659H446.517V368.239H451.467V369.949H424.017V368.239H428.967V311.989H428.607L415.107 369.949H403.857L388.017 311.719H387.657V368.239H392.607V369.949H380.367V368.239H385.317V308.659H380.367V306.949H404.667L416.637 353.299L427.437 306.949ZM480.703 348.799H483.313V341.869C483.313 336.169 482.983 332.359 482.323 330.439C481.723 328.459 480.523 327.469 478.723 327.469C477.643 327.469 476.653 327.769 475.753 328.369C474.913 328.909 474.493 329.689 474.493 330.709C474.493 331.669 474.673 332.659 475.033 333.679H477.283C477.763 334.939 478.003 336.469 478.003 338.269C478.003 340.009 477.253 341.539 475.753 342.859C474.253 344.119 472.363 344.749 470.083 344.749C464.923 344.749 462.343 342.259 462.343 337.279C462.343 329.899 468.613 326.209 481.153 326.209C488.293 326.209 493.213 327.439 495.913 329.899C498.673 332.299 500.053 336.739 500.053 343.219V361.489C500.053 364.609 500.923 366.169 502.663 366.169C504.703 366.169 505.903 363.079 506.263 356.899L507.613 356.989C507.373 362.269 506.383 365.899 504.643 367.879C502.903 369.859 500.053 370.849 496.093 370.849C488.893 370.849 484.753 368.629 483.673 364.189C482.893 366.469 481.723 368.149 480.163 369.229C478.603 370.309 476.323 370.849 473.323 370.849C464.443 370.849 460.003 367.219 460.003 359.959C460.003 355.699 461.683 352.789 465.043 351.229C468.463 349.609 473.683 348.799 480.703 348.799ZM477.103 359.869C477.103 362.989 477.253 364.999 477.553 365.899C477.913 366.799 478.543 367.249 479.443 367.249C480.403 367.249 481.273 366.499 482.053 364.999C482.893 363.439 483.313 361.309 483.313 358.609V350.239H482.683C478.963 350.239 477.103 352.969 477.103 358.429V359.869ZM542.428 369.949V368.329H546.568L536.398 347.449L534.688 347.899V368.329H538.828V369.949H512.998V368.329H517.948V304.069H512.638V302.449H534.688V346.099L536.128 345.559L556.378 328.729H547.918V327.109H565.648V328.729H559.348L548.638 337.819L564.208 368.329H567.448V369.949H542.428ZM594.693 370.849C586.953 370.849 581.133 368.869 577.233 364.909C573.393 360.889 571.473 355.339 571.473 348.259C571.473 341.119 573.633 335.659 577.953 331.879C582.333 328.099 587.883 326.209 594.603 326.209C608.223 326.209 614.763 333.049 614.223 346.729H588.843V350.239C588.843 356.119 589.593 360.559 591.093 363.559C592.593 366.559 595.203 368.059 598.923 368.059C605.883 368.059 610.443 364.339 612.603 356.899L614.223 357.169C613.083 361.489 611.013 364.849 608.013 367.249C605.073 369.649 600.633 370.849 594.693 370.849ZM588.933 344.929H598.203V340.519C598.203 335.659 597.903 332.359 597.303 330.619C596.763 328.819 595.623 327.919 593.883 327.919C592.203 327.919 590.943 328.879 590.103 330.799C589.323 332.659 588.933 335.899 588.933 340.519V344.929ZM680.581 368.239L674.011 348.799H656.191L649.261 368.239H656.011V369.949H642.241V368.239H646.471L669.421 306.409H676.801L699.481 368.239H703.621V369.949H674.191V368.239H680.581ZM665.461 323.239L657.001 346.819H673.291L665.461 323.239ZM745.681 322.429L748.201 320.899C748.561 319.039 747.841 318.109 746.041 318.109C743.461 318.109 742.171 320.089 742.171 324.049C742.171 325.609 742.381 327.409 742.801 329.449C747.361 332.509 749.641 336.439 749.641 341.239C749.641 345.979 747.991 349.669 744.691 352.309C741.391 354.949 736.921 356.269 731.281 356.269C728.941 356.269 726.511 356.029 723.991 355.549C721.351 357.229 720.031 358.489 720.031 359.329C720.031 360.169 721.951 360.589 725.791 360.589H734.971C748.591 360.589 755.401 365.479 755.401 375.259C755.401 380.539 753.331 384.709 749.191 387.769C745.111 390.889 738.721 392.449 730.021 392.449C715.201 392.449 707.791 389.239 707.791 382.819C707.791 379.339 710.101 376.939 714.721 375.619L720.121 378.049C719.641 379.789 719.401 381.439 719.401 382.999C719.401 388.159 723.241 390.739 730.921 390.739C735.601 390.739 739.201 389.869 741.721 388.129C744.241 386.389 745.501 384.229 745.501 381.649C745.501 379.069 744.721 377.329 743.161 376.429C741.661 375.589 738.631 375.169 734.071 375.169H725.341C720.481 375.169 717.001 374.359 714.901 372.739C712.801 371.119 711.751 369.139 711.751 366.799C711.751 364.399 712.501 362.419 714.001 360.859C715.501 359.239 718.171 357.259 722.011 354.919C715.051 352.939 711.571 348.379 711.571 341.239C711.571 336.739 713.191 333.109 716.431 330.349C719.671 327.589 724.531 326.209 731.011 326.209C734.911 326.209 738.241 326.959 741.001 328.459C740.641 326.839 740.461 325.369 740.461 324.049C740.461 320.689 741.361 318.259 743.161 316.759C744.961 315.259 746.971 314.509 749.191 314.509C751.411 314.509 753.181 315.109 754.501 316.309C755.881 317.449 756.571 319.039 756.571 321.079C756.571 323.119 756.031 324.649 754.951 325.669C753.871 326.629 752.551 327.109 750.991 327.109C749.491 327.109 748.231 326.719 747.211 325.939C746.251 325.099 745.741 323.929 745.681 322.429ZM726.601 339.259V344.119C726.601 348.139 726.931 350.869 727.591 352.309C728.311 353.749 729.361 354.469 730.741 354.469C732.181 354.469 733.201 353.779 733.801 352.399C734.461 350.959 734.791 348.049 734.791 343.669V339.259C734.791 334.579 734.491 331.519 733.891 330.079C733.291 328.579 732.271 327.829 730.831 327.829C729.451 327.829 728.401 328.609 727.681 330.169C726.961 331.669 726.601 334.699 726.601 339.259ZM791.173 329.629C788.953 329.629 787.003 331.069 785.323 333.949C783.643 336.829 782.803 340.249 782.803 344.209V368.329H789.193V369.949H761.113V368.329H766.063V328.729H761.113V327.109H782.803V335.749C783.583 332.689 785.083 330.349 787.303 328.729C789.523 327.049 792.043 326.209 794.863 326.209C797.683 326.209 799.963 327.019 801.703 328.639C803.503 330.199 804.403 332.449 804.403 335.389C804.403 338.269 803.743 340.489 802.423 342.049C801.103 343.609 799.063 344.389 796.303 344.389C793.603 344.389 791.593 343.489 790.273 341.689C789.013 339.889 788.863 337.399 789.823 334.219H793.063C794.563 331.159 793.933 329.629 791.173 329.629ZM823.403 320.899C820.223 320.899 817.943 320.089 816.563 318.469C815.243 316.849 814.583 314.839 814.583 312.439C814.583 310.039 815.303 308.059 816.743 306.499C818.243 304.939 820.493 304.159 823.493 304.159C826.493 304.159 828.773 304.879 830.333 306.319C831.893 307.699 832.673 309.709 832.673 312.349C832.673 314.929 831.923 316.999 830.423 318.559C828.923 320.119 826.583 320.899 823.403 320.899ZM809.813 327.109H831.863V368.329H836.903V369.949H810.173V368.329H815.123V328.729H809.813V327.109ZM868.438 327.829C865.798 327.829 863.908 329.269 862.768 332.149C861.628 335.029 861.058 339.799 861.058 346.459V351.139C861.058 357.079 861.718 361.339 863.038 363.919C864.358 366.499 866.788 367.789 870.328 367.789C873.868 367.789 876.688 366.589 878.788 364.189C880.888 361.789 882.238 359.059 882.838 355.999L884.458 356.179C883.318 361.339 881.218 365.059 878.158 367.339C875.038 369.679 870.748 370.849 865.288 370.849C858.328 370.849 852.988 368.989 849.268 365.269C845.548 361.489 843.688 355.999 843.688 348.799C843.688 341.539 845.788 335.959 849.988 332.059C854.248 328.159 860.158 326.209 867.718 326.209C873.058 326.209 877.138 327.259 879.958 329.359C882.778 331.399 884.188 333.979 884.188 337.099C884.188 340.219 883.498 342.499 882.118 343.939C880.798 345.379 878.938 346.099 876.538 346.099C874.198 346.099 872.308 345.469 870.868 344.209C869.428 342.949 868.708 341.089 868.708 338.629C868.708 337.549 868.858 336.469 869.158 335.389H872.128C872.548 334.189 872.758 333.109 872.758 332.149C872.758 329.269 871.318 327.829 868.438 327.829ZM943.894 369.949H923.374L922.384 363.379C921.424 365.779 919.984 367.639 918.064 368.959C916.204 370.219 913.414 370.849 909.694 370.849C900.394 370.849 895.744 365.839 895.744 355.819V328.729H890.704V327.109H912.484V357.979C912.484 361.579 912.724 363.949 913.204 365.089C913.744 366.229 914.764 366.799 916.264 366.799C917.824 366.799 919.204 365.869 920.404 364.009C921.604 362.149 922.204 359.569 922.204 356.269V328.729H918.064V327.109H938.944V368.329H943.894V369.949ZM949.876 302.449H971.926V368.329H976.966V369.949H950.236V368.329H955.186V304.069H949.876V302.449ZM987.713 357.079V328.729H982.763V327.109H987.713V315.499L1004.45 311.359V327.109H1016.15V328.729H1004.45V359.059C1004.45 361.879 1004.72 363.949 1005.26 365.269C1005.86 366.589 1007.06 367.249 1008.86 367.249C1010.66 367.249 1012.22 366.349 1013.54 364.549C1014.92 362.749 1015.82 360.289 1016.24 357.169L1017.77 357.349C1017.29 361.489 1015.97 364.789 1013.81 367.249C1011.65 369.649 1008.08 370.849 1003.1 370.849C998.123 370.849 994.313 369.859 991.673 367.879C989.033 365.899 987.713 362.299 987.713 357.079ZM1075.34 369.949H1054.82L1053.83 363.379C1052.87 365.779 1051.43 367.639 1049.51 368.959C1047.65 370.219 1044.86 370.849 1041.14 370.849C1031.84 370.849 1027.19 365.839 1027.19 355.819V328.729H1022.15V327.109H1043.93V357.979C1043.93 361.579 1044.17 363.949 1044.65 365.089C1045.19 366.229 1046.21 366.799 1047.71 366.799C1049.27 366.799 1050.65 365.869 1051.85 364.009C1053.05 362.149 1053.65 359.569 1053.65 356.269V328.729H1049.51V327.109H1070.39V368.329H1075.34V369.949ZM1111.75 329.629C1109.53 329.629 1107.58 331.069 1105.9 333.949C1104.22 336.829 1103.38 340.249 1103.38 344.209V368.329H1109.77V369.949H1081.69V368.329H1086.64V328.729H1081.69V327.109H1103.38V335.749C1104.16 332.689 1105.66 330.349 1107.88 328.729C1110.1 327.049 1112.62 326.209 1115.44 326.209C1118.26 326.209 1120.54 327.019 1122.28 328.639C1124.08 330.199 1124.98 332.449 1124.98 335.389C1124.98 338.269 1124.32 340.489 1123 342.049C1121.68 343.609 1119.64 344.389 1116.88 344.389C1114.18 344.389 1112.17 343.489 1110.85 341.689C1109.59 339.889 1109.44 337.399 1110.4 334.219H1113.64C1115.14 331.159 1114.51 329.629 1111.75 329.629ZM1153.98 370.849C1146.24 370.849 1140.42 368.869 1136.52 364.909C1132.68 360.889 1130.76 355.339 1130.76 348.259C1130.76 341.119 1132.92 335.659 1137.24 331.879C1141.62 328.099 1147.17 326.209 1153.89 326.209C1167.51 326.209 1174.05 333.049 1173.51 346.729H1148.13V350.239C1148.13 356.119 1148.88 360.559 1150.38 363.559C1151.88 366.559 1154.49 368.059 1158.21 368.059C1165.17 368.059 1169.73 364.339 1171.89 356.899L1173.51 357.169C1172.37 361.489 1170.3 364.849 1167.3 367.249C1164.36 369.649 1159.92 370.849 1153.98 370.849ZM1148.22 344.929H1157.49V340.519C1157.49 335.659 1157.19 332.359 1156.59 330.619C1156.05 328.819 1154.91 327.919 1153.17 327.919C1151.49 327.919 1150.23 328.879 1149.39 330.799C1148.61 332.659 1148.22 335.899 1148.22 340.519V344.929ZM1202.87 306.949H1249.67L1250.57 324.769H1248.95C1246.43 318.709 1243.79 314.569 1241.03 312.349C1238.27 310.069 1234.22 308.929 1228.88 308.929H1225.73V336.739H1228.79C1231.61 336.739 1233.98 335.689 1235.9 333.589C1237.82 331.429 1239.17 328.549 1239.95 324.949H1241.3V351.589H1239.77C1238.69 347.089 1237.22 343.879 1235.36 341.959C1233.56 340.039 1231.07 339.079 1227.89 339.079H1225.73V367.969H1229.15C1234.67 367.969 1239.35 366.319 1243.19 363.019C1247.09 359.719 1249.76 355.489 1251.2 350.329H1253L1252.28 369.949H1202.87V367.969H1208.18V308.929H1202.87V306.949ZM1284.15 348.799H1286.76V341.869C1286.76 336.169 1286.43 332.359 1285.77 330.439C1285.17 328.459 1283.97 327.469 1282.17 327.469C1281.09 327.469 1280.1 327.769 1279.2 328.369C1278.36 328.909 1277.94 329.689 1277.94 330.709C1277.94 331.669 1278.12 332.659 1278.48 333.679H1280.73C1281.21 334.939 1281.45 336.469 1281.45 338.269C1281.45 340.009 1280.7 341.539 1279.2 342.859C1277.7 344.119 1275.81 344.749 1273.53 344.749C1268.37 344.749 1265.79 342.259 1265.79 337.279C1265.79 329.899 1272.06 326.209 1284.6 326.209C1291.74 326.209 1296.66 327.439 1299.36 329.899C1302.12 332.299 1303.5 336.739 1303.5 343.219V361.489C1303.5 364.609 1304.37 366.169 1306.11 366.169C1308.15 366.169 1309.35 363.079 1309.71 356.899L1311.06 356.989C1310.82 362.269 1309.83 365.899 1308.09 367.879C1306.35 369.859 1303.5 370.849 1299.54 370.849C1292.34 370.849 1288.2 368.629 1287.12 364.189C1286.34 366.469 1285.17 368.149 1283.61 369.229C1282.05 370.309 1279.77 370.849 1276.77 370.849C1267.89 370.849 1263.45 367.219 1263.45 359.959C1263.45 355.699 1265.13 352.789 1268.49 351.229C1271.91 349.609 1277.13 348.799 1284.15 348.799ZM1280.55 359.869C1280.55 362.989 1280.7 364.999 1281 365.899C1281.36 366.799 1281.99 367.249 1282.89 367.249C1283.85 367.249 1284.72 366.499 1285.5 364.999C1286.34 363.439 1286.76 361.309 1286.76 358.609V350.239H1286.13C1282.41 350.239 1280.55 352.969 1280.55 358.429V359.869ZM1318.51 370.849V354.739H1319.59C1321.15 359.959 1323.25 363.619 1325.89 365.719C1328.53 367.819 1331.83 368.869 1335.79 368.869C1341.91 368.869 1344.97 366.919 1344.97 363.019C1344.97 361.339 1344.22 360.079 1342.72 359.239C1340.38 357.919 1337.38 356.899 1333.72 356.179C1329.64 355.099 1326.22 353.659 1323.46 351.859C1320.16 349.699 1318.51 346.279 1318.51 341.599C1318.51 336.919 1319.95 333.199 1322.83 330.439C1325.71 327.619 1329.55 326.209 1334.35 326.209C1337.29 326.209 1340.32 326.899 1343.44 328.279C1344.58 328.759 1345.45 328.999 1346.05 328.999C1346.65 328.999 1347.16 328.789 1347.58 328.369C1348 327.949 1348.51 327.169 1349.11 326.029H1350.1V339.799H1349.02C1345.96 331.999 1341.22 328.099 1334.8 328.099C1331.98 328.099 1329.88 328.609 1328.5 329.629C1327.12 330.589 1326.43 331.819 1326.43 333.319C1326.43 334.219 1326.64 334.939 1327.06 335.479C1327.48 335.959 1327.81 336.319 1328.05 336.559C1328.29 336.799 1328.68 337.069 1329.22 337.369C1329.76 337.609 1330.21 337.819 1330.57 337.999C1330.93 338.119 1331.47 338.299 1332.19 338.539C1332.97 338.779 1333.54 338.929 1333.9 338.989C1337.98 340.009 1340.92 340.909 1342.72 341.689C1344.52 342.409 1346.23 343.309 1347.85 344.389C1351.15 346.669 1352.8 350.359 1352.8 355.459C1352.8 360.499 1351.3 364.339 1348.3 366.979C1345.3 369.559 1341.19 370.849 1335.97 370.849C1332.25 370.849 1328.65 369.979 1325.17 368.239C1324.45 367.759 1323.88 367.519 1323.46 367.519C1322.14 367.519 1320.85 368.629 1319.59 370.849H1318.51ZM1357.32 328.729V327.109H1383.42V328.729H1378.56L1388.37 358.609L1398.81 328.729H1392.78V327.109H1405.47V328.729H1400.97L1384.14 377.239C1382.16 382.879 1379.94 386.809 1377.48 389.029C1375.02 391.309 1372.02 392.449 1368.48 392.449C1364.94 392.449 1362.15 391.639 1360.11 390.019C1358.07 388.399 1357.05 386.329 1357.05 383.809C1357.05 381.289 1357.71 379.369 1359.03 378.049C1360.35 376.729 1362.09 376.069 1364.25 376.069C1369.23 376.069 1371.72 378.139 1371.72 382.279C1371.72 383.179 1371.54 384.259 1371.18 385.519H1368.03C1367.55 386.899 1367.49 388.039 1367.85 388.939C1368.21 389.839 1369.02 390.289 1370.28 390.289C1372.74 390.289 1374.93 389.059 1376.85 386.599C1378.77 384.199 1380.6 380.509 1382.34 375.529L1384.32 369.949H1376.4L1361.01 328.729H1357.32Z" fill="white"/>
<defs>
<clipPath id="clip0_2_36">
<path d="M0 53.0255C0 42.5051 8.52853 33.9766 19.049 33.9766H245.601C292.067 33.9766 329.734 71.6442 329.734 118.11V343.9C329.734 354.421 321.206 362.949 310.685 362.949H74.6086C33.4034 362.949 0 329.546 0 288.341V53.0255Z" fill="white"/>
</clipPath>
</defs>
</svg>
